# xmcd
#
# Track frame offsets:
#	150
#	15082
#	26775
#	37083
#	58104
#	70702
#	84493
#	99807
#	110914
#	120830
#	132552
#	147301
#	160575
#	172460
#	184907
#	199741
#	209784
#	220233
#	229920
#	243106
#
# Disc length: 3393 seconds
#
# Revision: 0
# Processed by: cddbd v1.4PL0 Copyright (c) Steve Scherf et al.
# Submitted via: MusicWizard 6.0.2
#
DISCID=230d3f14
DTITLE=Various Artist - Country Roads Volume 1
DYEAR=1999
DGENRE=Country
TTITLE0=John Denver - Take Me Home, Country Road
TTITLE1=Patsy Cline - Walking After Midnight
TTITLE2=Roger Miller - Engine
TTITLE3=Melanie - Ruby Tuesday
TTITLE4=Johnny Paycheck - Take This Job And Shove It
TTITLE5=Porter Wagoner - Green Green Grass Of Home
TTITLE6=Billie Jo Spears - Blanket On The Ground
TTITLE7=Jerry Wallace - Primrose Lane
TTITLE8=Dave Dudley - Cowboy Boots
TTITLE9=Everly Brothers - Wake Up Little Susie
TTITLE10=Don Gibson - I Can't Stop Loving You
TTITLE11=Lynn Anderson - Rose Garden
TTITLE12=Boxcar Willie - Six Days On The Road
TTITLE13=Charlie Rich - Behind Closed Doors
TTITLE14=The Bellamy Brothers - Let Your Love Flow
TTITLE15=Johnny Cash - Ballad Of A Teenage Queen
TTITLE16=Faron Young - Hello Walls
TTITLE17=Charley Pride - Kiss An Angel Goodmorning
TTITLE18=Kenny Rogers - Ruby, Don't Take Your Love To Town
TTITLE19=Freddy Fender - Before The Next Teardrop Falls
EXTD=
EXTT0=
EXTT1=
EXTT2=
EXTT3=
EXTT4=
EXTT5=
EXTT6=
EXTT7=
EXTT8=
EXTT9=
EXTT10=
EXTT11=
EXTT12=
EXTT13=
EXTT14=
EXTT15=
EXTT16=
EXTT17=
EXTT18=
EXTT19=
PLAYORDER=
